<?xml version="1.0" encoding="UTF-8" standalone="no"?>
<!-- Created with Inkscape (http://www.inkscape.org/) -->

<svg
   width="205.94373mm"
   height="18.37039mm"
   viewBox="0 0 205.94373 18.37039"
   version="1.1"
   id="svg1"
   xml:space="preserve"
   xmlns="http://www.w3.org/2000/svg"
   xmlns:svg="http://www.w3.org/2000/svg"><defs
     id="defs1" /><path
     style="font-size:23.428px;line-height:0.5;font-family:Mafia;-inkscape-font-specification:'Mafia, Normal';text-align:center;text-anchor:middle;white-space:pre;inline-size:248.459;fill:#ffffff;fill-rule:evenodd;stroke-width:2.61197"
     d="m 12.779964,6.1921792e-4 q 0.0937,0 0.0937,0.0940000021 l 0.0469,0.1406 q 0.0703,0.07 0.21085,0.2343 0.164,0.1405 0.30457,0.3045 0.16399,0.164 0.30456,0.30459998 0.164,0.1406 0.23428,0.2108 l 1.68682,7.1924 0.0703,-0.3514 q 0.46856,-1.9914 0.96055,-4.053 0.49198,-2.0851 0.96054,-4.00619998 0,-0.07 0.0937,-0.07 h 9.01978 q 0.0937,0 0.0937,0.094 l 0.0469,0.1406 q 0.0703,0.07 0.21086,0.2343 0.16399,0.1405 0.30456,0.3045 0.164,0.164 0.30456,0.30459998 0.164,0.1406 0.23428,0.2108 l 1.68682,7.1924 0.0703,-0.3514 q 0.46856,-1.9914 0.96055,-4.053 0.49198,-2.0851 0.96054,-4.00619998 0,-0.07 0.0937,-0.07 h 3.98276 q 0.0937,0 0.0937,0.094 l -0.0234,0.094 q 0.28114,0.2577 0.53885,0.5389 0.25771,0.28109998 0.53884,0.53879998 0.0234,0.023 0.0234,0.094 L 32.928104,18.27652 q 0,0.07 -0.0937,0.07 h -12.18254 l -1.10112,-1.1011 h -0.0937 q -0.0937,0 -0.0937,-0.07 l -0.0937,-0.4217 q -0.11714,0.3983 -0.21085,0.7731 -0.0703,0.3749 -0.16399,0.7497 0,0.07 -0.0937,0.07 H 5.2831341 l -1.10111,-1.1011 h -0.0937 q -0.0937,0 -0.0937,-0.07 L 0.01186408,0.11981922 q -0.0469,-0.1171 0.0937,-0.1171 z M 18.238694,0.70341922 q -0.53885,2.20229998 -1.05426,4.40449998 -0.49199,2.1788 -1.00741,4.381 -0.4217,1.8040008 -0.81998,3.5142008 -0.39827,1.7103 -0.84341,3.5377 h 2.71765 l 1.40568,-5.3182 q 0.0234,-0.07 0.0937,-0.07 0.0703,0 0.0937,0.07 l 1.14797,5.3182 h 8.05924 l 0.98397,-4.1936 -2.74107,-11.64380078 z m 13.98651,0 q -0.53885,2.20229998 -1.05426,4.40449998 -0.49199,2.1788 -1.0074,4.381 -0.42171,1.8040008 -0.81998,3.5142008 -0.39828,1.7103 -0.84341,3.5377 h 2.71764 l 3.72506,-15.83740078 z m -31.34665992,0 L 4.6035941,16.54082 h 9.4414799 l 0.98398,-4.1936 -2.74108,-11.64380078 z M 18.519824,1.0549192 q -0.39827,1.5931 -0.74969,3.1627 -0.35142,1.5463 -0.72627,3.1394 l -0.51542,2.2022 -0.51541,2.1554008 -1.05426,4.4747 h 2.0148 l 1.3354,-5.0604 h -0.0234 q 0.0937,-0.328 0.44513,-0.3046 0.35142,0 0.44513,0.328 l 1.10112,5.037 h 7.47353 l 0.89026,-3.8421 q -0.67941,-2.8817008 -1.33539,-5.6462008 -0.63256,-2.7645 -1.31197,-5.6461 z m 13.98651,0 q -0.39827,1.5931 -0.74969,3.1627 -0.35142,1.5463 -0.72627,3.1394 l -0.51541,2.2022 -0.51542,2.1554008 -1.05426,4.4747 h 1.99138 l 3.56105,-15.1344008 z m -31.1826599,0 3.56106,15.1344008 h 8.8792099 l 0.89026,-3.8421 q -0.67941,-2.8817008 -1.33539,-5.6462008 -0.63256,-2.7645 -1.31197,-5.6461 z M 56.238884,6.1921792e-4 q 0.0937,0 0.0937,0.0940000021 v 0.094 q 0.0703,0.07 0.21086,0.2343 0.16399,0.1406 0.32799,0.328 0.16399,0.164 0.30456,0.30459998 0.164,0.1405 0.23428,0.2108 v 0.023 q 0.0234,0.047 0.0234,0.047 v 3.725 q 0,0.094 -0.0937,0.094 h -6.84098 v 2.3896 h 5.64615 q 0.0937,0 0.0937,0.094 v 0.094 q 0.0703,0.07 0.21085,0.2343 0.164,0.1406 0.328,0.328 0.16399,0.164 0.30456,0.3046 0.164,0.1405 0.23428,0.2108 v 0.024 q 0.0234,0.047 0.0234,0.047 V 12.58322 q 0,0.094 -0.0937,0.094 h -6.74727 v 0.5155 h 5.73986 q 0.0937,0 0.0937,0.094 v 0.094 q 0.0703,0.07 0.21086,0.2343 0.16399,0.1405 0.32799,0.328 0.16399,0.164 0.30456,0.3045 0.164,0.1406 0.23428,0.2109 v 0.023 q 0.0234,0.047 0.0234,0.047 v 3.725 q 0,0.094 -0.0937,0.094 h -18.29727 l -1.10112,-1.1011 h -0.0937 q -0.0937,0 -0.0937,-0.094 V 0.09671922 q 0,-0.094 0.0937,-0.094 z M 38.457034,13.89342 v 2.6474 h 17.17272 v -2.6474 z m 0,-13.19000078 V 13.42482 h 10.23804 v -2.4599 q 0,-0.094 0.0937,-0.094 h 6.74726 V 8.2470192 h -6.74726 q -0.0937,0 -0.0937,-0.094 v -4.709 q 0,-0.094 0.0937,-0.094 h 6.84097 V 0.70261922 Z m 0.35142,0.35149998 V 13.07342 h 9.5352 v -2.1085 q 0,-0.164 0.11714,-0.3046 0.14056,-0.1405 0.32799,-0.1405 h 6.39584 V 8.5987192 h -6.39584 q -0.18743,0 -0.32799,-0.1172 -0.11714,-0.1405 -0.11714,-0.328 v -4.709 q 0,-0.164 0.11714,-0.3046 0.14056,-0.1405 0.32799,-0.1405 h 6.48955 v -1.9445 z m 0,13.1899008 v 1.9445 h 16.46988 v -1.9445 z m 33.24431,-1.0542 h 0.37485 q 0.44513,0 0.84341,-0.164 0.4217,-0.1875 0.70284,-0.492 0.30456,-0.3046 0.46856,-0.7029 0.18742,-0.3982 0.18742,-0.8668 0,-0.2343 -0.0703,-0.4686 -0.0469,-0.2577 -0.14057,-0.4685 -0.44513,-0.1640008 -0.81998,-0.1640008 h -1.54625 z m -13.21339,4.053 h -0.0937 q -0.0937,0 -0.0937,-0.094 V 0.09401922 q 0,-0.09400000208 0.0937,-0.09400000208 h 13.68195 q 1.12454,0 2.03823,0.515400002076 0.93712,0.51539998 1.52282,1.35879998 v -0.023 l 0.65599,0.6326 q 0.56227,0.6091 0.89026,1.4056 0.35142,0.7732 0.35142,1.6634 0,0.8903 -0.37485,1.7571 l 0.37485,0.3749 q 0,0.023 0,0.023 0.0234,0 0.0234,0.023 l 0.0703,0.047 q 0.86684,0.8668 1.3354,1.9914 0.46856,1.1011008 0.46856,2.3662008 0,1.2651 -0.49199,2.4131 -0.49199,1.1245 -1.33539,1.9679 -0.84341,0.8434 -1.96796,1.3354 -1.12454,0.492 -2.38965,0.492 h -13.61167 -0.0469 q -0.0234,0 -0.0234,-0.023 z m 13.58824,-9.1838008 q 0.5857,0 1.12454,0.2343 0.53885,0.2343 0.91369,0.6326 0.39828,0.3748 0.63256,0.9137 0.23428,0.5388008 0.23428,1.1245008 0,0.6091 -0.23428,1.148 -0.21085,0.5154 -0.60913,0.9137 -0.39827,0.3982 -0.93712,0.6325 -0.51541,0.2343 -1.12454,0.2343 h -1.73367 l -1.21826,2.6474 h 2.95193 q 1.14797,0 2.15537,-0.4452 1.00741,-0.4451 1.7571,-1.1948 0.77313,-0.7497 1.19483,-1.7571 0.44513,-1.0308 0.44513,-2.1788 0,-1.4057008 -0.63255,-2.6005008 -0.63256,-1.1948 -1.7571,-1.968 -0.0703,-0.023 -0.0234,-0.1171 0.51542,-0.8903 0.51542,-1.8977 0,-0.7731 -0.28114,-1.4291 -0.28114,-0.6794 -0.77312,-1.1714 -0.49199,-0.492 -1.1714,-0.7731 -0.65599,-0.30459998 -1.42911,-0.30459998 h -0.42171 l -1.21825,2.64739998 h 1.63996 q 0.44513,0 0.72627,0.3046 0.30456,0.2811 0.30456,0.7262 0,0.4452 -0.30456,0.7497 -0.28114,0.2812 -0.72627,0.2812 h -2.08509 q -0.0937,0 -0.0937,-0.094 v -1.9211 l 1.24169,-2.69429998 H 59.354834 V 8.0595192 Z m -2.17881,0.4686 H 59.354784 V 16.54082 h 9.58206 l 1.31196,-2.8348 z m 2.17881,-0.82 q 0.65598,0 1.24168,0.2577 0.60913,0.2577 1.05426,0.7029 0.44513,0.4451 0.70284,1.0542 0.25771,0.5857008 0.25771,1.2417008 0,0.6794 -0.25771,1.2885 -0.25771,0.5857 -0.70284,1.0309 -0.4217,0.4451 -1.03083,0.7028 -0.5857,0.2577 -1.26511,0.2577 h -1.49939 l -0.9137,1.9445 h 2.41309 q 1.07769,0 2.01481,-0.3982 0.96054,-0.4217 1.66338,-1.1246 0.70284,-0.7262 1.10112,-1.6634 0.4217,-0.9605 0.4217,-2.0382 0,-1.3354008 -0.5857,-2.4365008 -0.5857,-1.1246 -1.63996,-1.8508 l 0.0234,0.023 q -0.18742,-0.1171 -0.23428,-0.2577 -0.0234,-0.164 0.0703,-0.328 0.46856,-0.7965 0.46856,-1.7337 0,-0.7028 -0.25771,-1.2885 -0.25771,-0.6091 -0.70284,-1.0543 -0.44513,-0.4685 -1.05426,-0.7262 -0.5857,-0.2577 -1.28854,-0.2577 h -0.18743 l -0.91369,1.9445 h 1.10112 q 0.60913,0 0.98397,0.3983 0.39828,0.3748 0.39828,0.9839 0,0.6092 -0.39828,1.0074 -0.37484,0.3749 -0.98397,0.3749 h -2.08509 q -0.18743,0 -0.328,-0.1172 -0.11714,-0.1405 -0.11714,-0.3279 v -2.0149 l 1.05426,-2.249 h -11.24544 v 6.6535 z m -2.53023,1.1714 H 59.706204 V 16.18932 h 8.99636 l 1.19482,-2.5536 z m 22.0692,-8.87919998208 q 0.0937,0 0.0937,0.0940000021 v 0.094 q 0.0703,0.07 0.21085,0.2343 0.164,0.1406 0.32799,0.328 0.164,0.164 0.30457,0.30459998 0.16399,0.1405 0.23428,0.2108 v 0.023 q 0.0234,0.047 0.0234,0.047 v 3.9125 l 3.88904,-5.20099998 q 0.0469,-0.0470000019 0.0703,-0.0470000019 l 4.779306,0.0940000019 0.0234,0.1171 q 0.51541,0.5389 1.05426,1.05429998 0.0468,0.047 0,0.1171 L 96.300704,10.37972 q 1.71024,1.968 3.37363,3.9125 1.686816,1.9211 3.397056,3.889 0.0469,0.047 0.0234,0.094 -0.0234,0.07 -0.0937,0.07 h -4.943306 l -1.10112,-1.1011 h -0.0469 q -0.0703,0 -0.0703,-0.023 l -3.04564,-3.4908 q -0.11714,0.164 -0.23428,0.328 -0.11714,0.1406 -0.23428,0.3046 h 0.0234 q -0.0469,0.07 -0.0937,0.1405 -0.0469,0.07 -0.0937,0.1406 v 3.6079 q 0,0.094 -0.0937,0.094 h -10.87059 l -1.10111,-1.1011 h -0.0937 q -0.0937,0 -0.0937,-0.094 V 0.09521922 q 0,-0.094 0.0937,-0.094 z M 97.401874,0.70341922 q -2.99878,4.02969998 -5.92728,7.91869998 -2.9285,3.8890008 -5.92728,7.9187008 h 5.81014 v -3.3034 q 0.0234,-0.047 0.0234,-0.047 l 1.26511,-1.6869 q 1.94452,-2.6005008 4.00619,-5.3884008 2.08509,-2.8114 4.029606,-5.41189998 z m -15.79047,0 V 16.54082 h 3.39706 l 6.34899,-8.5278008 V 0.70341922 Z m 11.40944,11.05810078 4.14675,4.7793 h 3.490776 q -1.546246,-1.7806 -3.022216,-3.4674 -1.45253,-1.6868 -2.99878,-3.4673008 z m 4.54503,-10.7066008 -5.81014,7.7781 -5.50558,7.3563008 h 4.75588 q 0,-0.7731 0,-1.5696 0.0234,-0.7966 0.0234,-1.5463 l 1.33539,-1.7805 q 1.96796,-2.6005008 4.00619,-5.3884008 l 3.631336,-4.8496 z m -15.60305,0 V 16.18932 h 2.85822 q 1.54625,-2.1085 3.09249,-4.1467 1.54625,-2.0382 3.0925,-4.1468008 v -6.8409 z m 11.50315,10.7066008 3.86562,4.4278 h 2.53022 q -0.65598,-0.7497 -1.26511,-1.4525 -0.60913,-0.7028 -1.21825,-1.4291 -0.7497,-0.8668 -1.38226,-1.5462 -0.60912,-0.7029 -1.35882,-1.5932 z M 122.35271,6.1921793e-4 q 0.0937,0 0.0937,0.0940000021 v 0.094 q 0.0703,0.07 0.21085,0.2343 0.164,0.1406 0.32799,0.328 0.164,0.164 0.30457,0.30459998 0.16399,0.1405 0.23428,0.2108 v 0.023 q 0.0234,0.047 0.0234,0.047 v 3.725 q 0,0.094 -0.0937,0.094 h -6.84097 v 2.3896 h 5.64615 q 0.0937,0 0.0937,0.094 v 0.094 q 0.0703,0.07 0.21085,0.2343 0.164,0.1406 0.32799,0.328 0.164,0.164 0.30457,0.3046 0.16399,0.1405 0.23428,0.2108 v 0.024 q 0.0234,0.047 0.0234,0.047 V 12.58322 q 0,0.094 -0.0937,0.094 h -6.74726 v 0.5155 h 5.73986 q 0.0937,0 0.0937,0.094 v 0.094 q 0.0703,0.07 0.21085,0.2343 0.164,0.1405 0.32799,0.328 0.164,0.164 0.30457,0.3045 0.16399,0.1406 0.23428,0.2109 v 0.023 q 0.0234,0.047 0.0234,0.047 v 3.725 q 0,0.094 -0.0937,0.094 h -18.2972 l -1.10112,-1.1011 h -0.0937 q -0.0937,0 -0.0937,-0.094 V 0.09671922 q 0,-0.094 0.0937,-0.094 z M 104.57086,13.89342 v 2.6474 h 17.17272 v -2.6474 z m 0,-13.19000078 V 13.42482 h 10.23803 v -2.4599 q 0,-0.094 0.0937,-0.094 h 6.74727 V 8.2470192 h -6.74727 q -0.0937,0 -0.0937,-0.094 v -4.709 q 0,-0.094 0.0937,-0.094 h 6.84098 V 0.70261922 Z m 0.35142,0.35149998 V 13.07342 h 9.53519 v -2.1085 q 0,-0.164 0.11714,-0.3046 0.14057,-0.1405 0.32799,-0.1405 h 6.39585 V 8.5987192 h -6.39585 q -0.18742,0 -0.32799,-0.1172 -0.11714,-0.1405 -0.11714,-0.328 v -4.709 q 0,-0.164 0.11714,-0.3046 0.14057,-0.1405 0.32799,-0.1405 h 6.48956 v -1.9445 z m 0,13.1899008 v 1.9445 h 16.46988 v -1.9445 z m 32.44775,-5.7633008 h 1.00741 q 0.44513,0 0.84341,-0.164 0.4217,-0.1874 0.70284,-0.492 0.30456,-0.3045 0.46856,-0.7028 0.18742,-0.3983 0.18742,-0.8668 0,-0.2343 -0.0703,-0.4686 -0.0469,-0.2577 -0.14057,-0.4685 -0.44513,-0.164 -0.81998,-0.164 h -2.17881 z m 1.00741,-8.48089998207 q 1.54625,0 2.83479,0.67940000207 1.28854,0.67939998 2.15537,1.82739998 v -0.023 l 0.56227,0.5622 q 0.84342,0.8434 1.31198,1.9914 0.49199,1.1246 0.49199,2.3897 0,1.6868 -0.86684,3.1159008 -0.84341,1.4291 -2.22567,2.2491 l 3.4205,5.4119 q 0.0937,0.1405 -0.0703,0.1405 h -4.4279 l -1.10112,-1.1011 h -0.0703 q -0.0234,0 -0.0703,-0.047 l -2.24909,-3.561 h -0.70284 v 4.6153 q 0,0.094 -0.0937,0.094 h -11.24544 l -1.10111,-1.1011 h -0.0937 q -0.0937,0 -0.0937,-0.094 V 0.09461922 q 0,-0.094000002 0.0937,-0.094000002 z M 140.93109,11.73802 l -0.0703,0.047 q -0.0469,-0.047 -0.0469,-0.094 z m 2.9285,4.8028 q -0.72627,-1.1714 -1.52282,-2.3663 -0.77312,-1.2182 -1.47596,-2.3896 -0.67942,0.328 -1.35883,0.4217 -0.67941,0.07 -1.42911,0.094 l 2.64737,4.2405 z m -18.41441,0 h 10.1209 v -4.2405 h -10.1209 z m 8.80893,-15.83740078 h -8.80893 V 11.83172 h 12.93226 q 1.14797,0 2.15537,-0.4451 1.00741,-0.4451 1.7571,-1.1948 0.77313,-0.7497008 1.19483,-1.7571008 0.44513,-1.0309 0.44513,-2.1788 0,-1.148 -0.44513,-2.1554 -0.4217,-1.0074 -1.19483,-1.7571 -0.74969,-0.7731 -1.7571,-1.1948 -1.0074,-0.44519998 -2.15537,-0.44519998 h -3.58449 l 1.21826,2.64739998 h 2.36623 q 0.5857,0 1.12454,0.2343 0.53885,0.2343 0.91369,0.6325 0.39828,0.3749 0.63256,0.9137 0.23428,0.5389 0.23428,1.1246 0,0.6091 -0.23428,1.1479 -0.21085,0.5155 -0.60913,0.9137 -0.39827,0.3983 -0.93712,0.6326 -0.51541,0.2343 -1.12454,0.2343 h -2.71765 q -0.0937,0 -0.0937,-0.094 v -5.5525 z M 140.93109,16.18932 h 2.29594 q -0.23428,-0.3514 -0.46856,-0.7262 -0.21085,-0.3749 -0.46856,-0.7497 -0.44513,-0.6794 -0.81998,-1.2417 -0.37484,-0.5623 -0.77312,-1.2417 -0.49199,0.1874 -0.98398,0.2811 -0.46856,0.07 -1.0074,0.1172 z m -15.13449,0 h 9.41806 v -3.5376 H 125.7966 Z M 134.01983,1.0549192 H 125.7966 V 11.48032 h 12.58084 q 1.07769,0 2.01481,-0.3983 0.96054,-0.4217 1.66338,-1.1245008 0.70284,-0.7263 1.10112,-1.6634 0.4217,-0.9605 0.4217,-2.0382 0,-1.0777 -0.4217,-2.0148 -0.39828,-0.9606 -1.10112,-1.6634 -0.70284,-0.7029 -1.66338,-1.1011 -0.93712,-0.4217 -2.01481,-0.4217 h -3.04564 q 0.21085,0.4685 0.44513,0.9605 0.23428,0.4686 0.46856,0.984 h 2.13195 q 0.65598,0 1.24168,0.2577 0.60913,0.2577 1.05426,0.7028 0.44513,0.4452 0.70284,1.0543 0.25771,0.5857 0.25771,1.2417 0,0.6794 -0.25771,1.2885 -0.25771,0.5857 -0.70284,1.0308 -0.4217,0.4452 -1.03083,0.7029 -0.5857,0.2577 -1.26511,0.2577 h -2.71765 q -0.18742,0 -0.32799,-0.1171 -0.11714,-0.1406 -0.11714,-0.328 v -5.4822 z M 165.95219,6.1921793e-4 q 0.0937,0 0.0937,0.0940000021 v 0.094 q 0.0703,0.07 0.21085,0.2343 0.16399,0.1406 0.32799,0.328 0.164,0.164 0.30456,0.30459998 0.164,0.1405 0.23428,0.2108 v 0.023 q 0.0234,0.047 0.0234,0.047 V 18.25132 q 0,0.094 -0.0937,0.094 h -3.56106 l -1.10111,-1.1011 h -0.0703 q -0.0234,0 -0.0703,-0.047 l -3.13935,-5.0604 v 6.1147 q 0,0.094 -0.0937,0.094 h -10.77688 l -1.10112,-1.1011 h -0.0937 q -0.0937,0 -0.0937,-0.094 V 0.09481922 q 0,-0.094000002 0.0937,-0.094000002 h 9.25406 q 0.0469,0 0.0937,0.047000002 l 0.18742,0.3045 q 0.0469,0.047 0.164,0.1874 0.11714,0.1172 0.25771,0.2577 0.14057,0.1172 0.25771,0.25779998 0.11714,0.1171 0.18742,0.164 l 4.54503,7.3329 V 0.09461922 q 0,-0.094000002 0.0937,-0.094000002 z M 162.6957,0.70341922 V 11.24602 q 0,0.07 -0.0703,0.094 -0.0469,0 -0.0937,-0.047 L 155.97186,0.70351922 h -3.11593 L 162.64884,16.54092 h 2.69422 V 0.70351922 Z m -5.38844,8.12959998 -5.01359,-8.12959998 h -4.63874 V 16.54082 h 9.65233 z m 5.73986,-7.7781 V 11.24602 q 0,0.328 -0.32799,0.4217 -0.30456,0.07 -0.49199,-0.1874 L 155.76101,1.0549192 h -2.27251 q 2.36623,3.8421 4.6856,7.5672 2.31937,3.7016008 4.6856,7.5672008 h 2.13195 V 1.0549192 Z m -6.09128,7.8952 q -1.26511,-2.0148 -2.43651,-3.9359 -1.14797,-1.9445 -2.41308,-3.9593 h -4.0999 V 16.18932 h 8.94949 z M 186.96713,6.1921793e-4 q 0.0937,0 0.0937,0.0940000021 v 0.094 q 0.0703,0.07 0.21085,0.2343 0.164,0.1406 0.32799,0.328 0.164,0.164 0.30457,0.30459998 0.16399,0.1405 0.23428,0.2108 v 0.023 q 0.0234,0.047 0.0234,0.047 v 3.725 q 0,0.094 -0.0937,0.094 h -6.84097 v 2.3896 h 5.64615 q 0.0937,0 0.0937,0.094 v 0.094 q 0.0703,0.07 0.21085,0.2343 0.164,0.1406 0.32799,0.328 0.164,0.164 0.30457,0.3046 0.16399,0.1405 0.23428,0.2108 v 0.024 q 0.0234,0.047 0.0234,0.047 V 12.58322 q 0,0.094 -0.0937,0.094 h -6.74726 v 0.5155 h 5.73986 q 0.0937,0 0.0937,0.094 v 0.094 q 0.0703,0.07 0.21085,0.2343 0.164,0.1405 0.32799,0.328 0.164,0.164 0.30457,0.3045 0.16399,0.1406 0.23428,0.2109 v 0.023 q 0.0234,0.047 0.0234,0.047 v 3.725 q 0,0.094 -0.0937,0.094 h -18.29726 l -1.10112,-1.1011 h -0.0937 q -0.0937,0 -0.0937,-0.094 V 0.09671922 q 0,-0.094 0.0937,-0.094 z M 169.18528,13.89342 v 2.6474 H 186.358 v -2.6474 z m 0,-13.19000078 V 13.42482 h 10.23803 v -2.4599 q 0,-0.094 0.0937,-0.094 h 6.74727 V 8.2470192 h -6.74727 q -0.0937,0 -0.0937,-0.094 v -4.709 q 0,-0.094 0.0937,-0.094 h 6.84098 V 0.70261922 Z M 169.5367,1.0549192 V 13.07342 h 9.53519 v -2.1085 q 0,-0.164 0.11714,-0.3046 0.14057,-0.1405 0.32799,-0.1405 h 6.39585 V 8.5987192 h -6.39585 q -0.18742,0 -0.32799,-0.1172 -0.11714,-0.1405 -0.11714,-0.328 v -4.709 q 0,-0.164 0.11714,-0.3046 0.14057,-0.1405 0.32799,-0.1405 h 6.48956 v -1.9445 z m 0,13.1899008 v 1.9445 h 16.46988 v -1.9445 z M 200.55535,0.21141922 q 0.0703,0.07 0.21085,0.2343 0.164,0.1406 0.32799,0.328 0.164,0.164 0.30457,0.30459998 0.16399,0.1406 0.23428,0.2108 v 0.024 q 0.0234,0.047 0.0234,0.047 V 13.23812 h 3.0925 q 0.0937,0 0.0937,0.094 v 0.094 q 0.0703,0.07 0.21085,0.2343 0.164,0.1406 0.328,0.328 0.16399,0.164 0.30456,0.3046 0.164,0.1405 0.23428,0.2108 v 0.024 q 0.0234,0.047 0.0234,0.047 v 3.7016 q 0,0.094 -0.0937,0.094 h -15.11106 l -1.10112,-1.1011 h -0.0937 q -0.0937,0 -0.0937,-0.094 V 0.11971922 q 0,-0.094 0.0937,-0.094 h 10.91745 q 0.0937,0 0.0937,0.094 z M 190.15332,13.94032 v 2.6239 h 13.98651 v -2.6239 z m 9.69919,-13.21340078 h -9.69919 V 13.47172 h 9.69919 z M 190.50474,14.29172 v 1.9211 h 13.28367 v -1.9211 z m 8.99635,-13.2134008 h -8.99635 V 13.12032 h 8.99635 z"
     id="text49"
     aria-label="WEBKERNEL" /></svg>
