<?xml version="1.0" encoding="UTF-8" standalone="no"?>
<!-- Created with Inkscape (http://www.inkscape.org/) -->

<svg
   width="205.94373mm"
   height="18.37039mm"
   viewBox="0 0 205.94373 18.37039"
   version="1.1"
   id="svg1"
   xml:space="preserve"
   xmlns="http://www.w3.org/2000/svg"
   xmlns:svg="http://www.w3.org/2000/svg"><defs
     id="defs1" /><path
     style="font-size:23.428px;line-height:0.5;font-family:'Mafia Hollow';-inkscape-font-specification:'Mafia Hollow, Normal';text-align:center;text-anchor:middle;white-space:pre;inline-size:248.459;fill:#ffffff;fill-rule:evenodd;stroke-width:2.61197"
     d="m 12.779964,5.8180912e-4 q 0.0937,0 0.0937,0.0940000009 l 0.0469,0.1406 q 0.0703,0.07 0.21085,0.2343 0.164,0.1405 0.30457,0.3045 0.16399,0.164 0.30456,0.30459999 0.164,0.1406 0.23428,0.2108 l 1.68682,7.1924 0.0703,-0.3514 q 0.46856,-1.9914 0.96055,-4.053 0.49198,-2.0851 0.96054,-4.00619999 0,-0.07 0.0937,-0.07 h 9.01978 q 0.0937,0 0.0937,0.094 l 0.0469,0.1406 q 0.0703,0.07 0.21086,0.2343 0.16399,0.1405 0.30456,0.3045 0.164,0.164 0.30456,0.30459999 0.164,0.1406 0.23428,0.2108 l 1.68682,7.1924 0.0703,-0.3514 q 0.46856,-1.9914 0.96055,-4.053 0.49198,-2.0851 0.96054,-4.00619999 0,-0.07 0.0937,-0.07 h 3.98276 q 0.0937,0 0.0937,0.094 l -0.0234,0.094 q 0.28114,0.2577 0.53885,0.5389 0.25771,0.28109999 0.53884,0.53879999 0.0234,0.023 0.0234,0.094 l -3.95933,16.9150002 q 0,0.07 -0.0937,0.07 h -12.18254 l -1.10112,-1.1011 h -0.0937 q -0.0937,0 -0.0937,-0.07 l -0.0937,-0.4217 q -0.11714,0.3983 -0.21085,0.7731 -0.0703,0.3749 -0.16399,0.7497 0,0.07 -0.0937,0.07 H 5.2831341 l -1.10111,-1.1011 h -0.0937 q -0.0937,0 -0.0937,-0.07 L 0.01186408,0.11978181 q -0.0469,-0.1171 0.0937,-0.1171 z M 18.238694,0.70338181 q -0.53885,2.20229999 -1.05426,4.40449999 -0.49199,2.1788 -1.00741,4.381 -0.4217,1.8040002 -0.81998,3.5142002 -0.39827,1.7103 -0.84341,3.5377 h 2.71765 l 1.40568,-5.3182 q 0.0234,-0.07 0.0937,-0.07 0.0703,0 0.0937,0.07 l 1.14797,5.3182 h 8.05924 l 0.98397,-4.1936 -2.74107,-11.64380019 z m 13.98651,0 q -0.53885,2.20229999 -1.05426,4.40449999 -0.49199,2.1788 -1.0074,4.381 -0.42171,1.8040002 -0.81998,3.5142002 -0.39828,1.7103 -0.84341,3.5377 h 2.71764 l 3.72506,-15.83740019 z m -31.34665992,0 L 4.6035941,16.540782 h 9.4414799 l 0.98398,-4.1936 -2.74108,-11.64380019 z M 56.238884,5.8180912e-4 q 0.0937,0 0.0937,0.0940000009 v 0.094 q 0.0703,0.07 0.21086,0.2343 0.16399,0.1406 0.32799,0.328 0.16399,0.164 0.30456,0.30459999 0.164,0.1405 0.23428,0.2108 v 0.023 q 0.0234,0.047 0.0234,0.047 v 3.725 q 0,0.094 -0.0937,0.094 h -6.84098 v 2.3896 h 5.64615 q 0.0937,0 0.0937,0.094 v 0.094 q 0.0703,0.07 0.21085,0.2343 0.164,0.1406 0.328,0.328 0.16399,0.164 0.30456,0.3046 0.164,0.1405 0.23428,0.2108 v 0.024 q 0.0234,0.047 0.0234,0.047 v 3.7016002 q 0,0.094 -0.0937,0.094 h -6.74727 v 0.5155 h 5.73986 q 0.0937,0 0.0937,0.094 v 0.094 q 0.0703,0.07 0.21086,0.2343 0.16399,0.1405 0.32799,0.328 0.16399,0.164 0.30456,0.3045 0.164,0.1406 0.23428,0.2109 v 0.023 q 0.0234,0.047 0.0234,0.047 v 3.725 q 0,0.094 -0.0937,0.094 h -18.29727 l -1.10112,-1.1011 h -0.0937 q -0.0937,0 -0.0937,-0.094 V 0.09668181 q 0,-0.094 0.0937,-0.094 z M 38.457034,13.893382 v 2.6474 h 17.17272 v -2.6474 z m 0,-13.19000019 V 13.424782 h 10.23804 v -2.4599 q 0,-0.094 0.0937,-0.094 h 6.74726 V 8.2469818 h -6.74726 q -0.0937,0 -0.0937,-0.094 v -4.709 q 0,-0.094 0.0937,-0.094 h 6.84097 V 0.70258181 Z M 72.052764,13.190582 h 0.37485 q 0.44513,0 0.84341,-0.164 0.4217,-0.1875 0.70284,-0.492 0.30456,-0.3046 0.46856,-0.7029 0.18742,-0.3982 0.18742,-0.8668 0,-0.2343 -0.0703,-0.4686 -0.0469,-0.2577 -0.14057,-0.4685 -0.44513,-0.1640002 -0.81998,-0.1640002 h -1.54625 z m -13.21339,4.053 h -0.0937 q -0.0937,0 -0.0937,-0.094 V 0.09398181 q 0,-0.09400000088 0.0937,-0.09400000088 h 13.68195 q 1.12454,0 2.03823,0.515400000876 0.93712,0.51539999 1.52282,1.35879999 v -0.023 l 0.65599,0.6326 q 0.56227,0.6091 0.89026,1.4056 0.35142,0.7732 0.35142,1.6634 0,0.8903 -0.37485,1.7571 l 0.37485,0.3749 q 0,0.023 0,0.023 0.0234,0 0.0234,0.023 l 0.0703,0.047 q 0.86684,0.8668 1.3354,1.9914 0.46856,1.1011002 0.46856,2.3662002 0,1.2651 -0.49199,2.4131 -0.49199,1.1245 -1.33539,1.9679 -0.84341,0.8434 -1.96796,1.3354 -1.12454,0.492 -2.38965,0.492 h -13.61167 -0.0469 q -0.0234,0 -0.0234,-0.023 z m 13.58824,-9.1838002 q 0.5857,0 1.12454,0.2343 0.53885,0.2343 0.91369,0.6326 0.39828,0.3748 0.63256,0.9137 0.23428,0.5388002 0.23428,1.1245002 0,0.6091 -0.23428,1.148 -0.21085,0.5154 -0.60913,0.9137 -0.39827,0.3982 -0.93712,0.6325 -0.51541,0.2343 -1.12454,0.2343 h -1.73367 l -1.21826,2.6474 h 2.95193 q 1.14797,0 2.15537,-0.4452 1.00741,-0.4451 1.7571,-1.1948 0.77313,-0.7497 1.19483,-1.7571 0.44513,-1.0308 0.44513,-2.1788 0,-1.4057002 -0.63255,-2.6005002 -0.63256,-1.1948 -1.7571,-1.968 -0.0703,-0.023 -0.0234,-0.1171 0.51542,-0.8903 0.51542,-1.8977 0,-0.7731 -0.28114,-1.4291 -0.28114,-0.6794 -0.77312,-1.1714 -0.49199,-0.492 -1.1714,-0.7731 -0.65599,-0.30459999 -1.42911,-0.30459999 h -0.42171 l -1.21825,2.64739999 h 1.63996 q 0.44513,0 0.72627,0.3046 0.30456,0.2811 0.30456,0.7262 0,0.4452 -0.30456,0.7497 -0.28114,0.2812 -0.72627,0.2812 h -2.08509 q -0.0937,0 -0.0937,-0.094 v -1.9211 l 1.24169,-2.69429999 H 59.354834 V 8.0594818 Z m -2.17881,0.4686 h -10.89402 v 8.0124002 h 9.58206 l 1.31196,-2.8348 z M 91.966584,5.8180912e-4 q 0.0937,0 0.0937,0.0940000009 v 0.094 q 0.0703,0.07 0.21085,0.2343 0.164,0.1406 0.32799,0.328 0.164,0.164 0.30457,0.30459999 0.16399,0.1405 0.23428,0.2108 v 0.023 q 0.0234,0.047 0.0234,0.047 v 3.9125 l 3.88904,-5.20099999 q 0.0469,-0.0470000009 0.0703,-0.0470000009 l 4.779306,0.0940000009 0.0234,0.1171 q 0.51541,0.5389 1.05426,1.05429999 0.0468,0.047 0,0.1171 l -6.676976,8.9964002 q 1.71024,1.968 3.37363,3.9125 1.686816,1.9211 3.397056,3.889 0.0469,0.047 0.0234,0.094 -0.0234,0.07 -0.0937,0.07 h -4.943306 l -1.10112,-1.1011 h -0.0469 q -0.0703,0 -0.0703,-0.023 l -3.04564,-3.4908 q -0.11714,0.164 -0.23428,0.328 -0.11714,0.1406 -0.23428,0.3046 h 0.0234 q -0.0469,0.07 -0.0937,0.1405 -0.0469,0.07 -0.0937,0.1406 v 3.6079 q 0,0.094 -0.0937,0.094 h -10.87059 l -1.10111,-1.1011 h -0.0937 q -0.0937,0 -0.0937,-0.094 V 0.09518181 q 0,-0.094 0.0937,-0.094 z M 97.401874,0.70338181 q -2.99878,4.02969999 -5.92728,7.91869999 -2.9285,3.8890002 -5.92728,7.9187002 h 5.81014 v -3.3034 q 0.0234,-0.047 0.0234,-0.047 l 1.26511,-1.6869 q 1.94452,-2.6005002 4.00619,-5.3884002 2.08509,-2.8114 4.029606,-5.41189999 z m -15.79047,0 V 16.540782 h 3.39706 l 6.34899,-8.5278002 V 0.70338181 Z m 11.40944,11.05810019 4.14675,4.7793 h 3.490776 q -1.546246,-1.7806 -3.022216,-3.4674 -1.45253,-1.6868 -2.99878,-3.4673002 z M 122.35271,5.8180912e-4 q 0.0937,0 0.0937,0.0940000009 v 0.094 q 0.0703,0.07 0.21085,0.2343 0.164,0.1406 0.32799,0.328 0.164,0.164 0.30457,0.30459999 0.16399,0.1405 0.23428,0.2108 v 0.023 q 0.0234,0.047 0.0234,0.047 v 3.725 q 0,0.094 -0.0937,0.094 h -6.84097 v 2.3896 h 5.64615 q 0.0937,0 0.0937,0.094 v 0.094 q 0.0703,0.07 0.21085,0.2343 0.164,0.1406 0.32799,0.328 0.164,0.164 0.30457,0.3046 0.16399,0.1405 0.23428,0.2108 v 0.024 q 0.0234,0.047 0.0234,0.047 v 3.7016002 q 0,0.094 -0.0937,0.094 h -6.74726 v 0.5155 h 5.73986 q 0.0937,0 0.0937,0.094 v 0.094 q 0.0703,0.07 0.21085,0.2343 0.164,0.1405 0.32799,0.328 0.164,0.164 0.30457,0.3045 0.16399,0.1406 0.23428,0.2109 v 0.023 q 0.0234,0.047 0.0234,0.047 v 3.725 q 0,0.094 -0.0937,0.094 h -18.2972 l -1.10112,-1.1011 h -0.0937 q -0.0937,0 -0.0937,-0.094 V 0.09668181 q 0,-0.094 0.0937,-0.094 z M 104.57086,13.893382 v 2.6474 h 17.17272 v -2.6474 z m 0,-13.19000019 V 13.424782 h 10.23803 v -2.4599 q 0,-0.094 0.0937,-0.094 h 6.74727 V 8.2469818 h -6.74727 q -0.0937,0 -0.0937,-0.094 v -4.709 q 0,-0.094 0.0937,-0.094 h 6.84098 V 0.70258181 Z m 32.79917,7.77809999 h 1.00741 q 0.44513,0 0.84341,-0.164 0.4217,-0.1874 0.70284,-0.492 0.30456,-0.3045 0.46856,-0.7028 0.18742,-0.3983 0.18742,-0.8668 0,-0.2343 -0.0703,-0.4686 -0.0469,-0.2577 -0.14057,-0.4685 -0.44513,-0.164 -0.81998,-0.164 h -2.17881 z m 1.00741,-8.48089999088 q 1.54625,0 2.83479,0.67940000088 1.28854,0.67939999 2.15537,1.82739999 v -0.023 l 0.56227,0.5622 q 0.84342,0.8434 1.31198,1.9914 0.49199,1.1246 0.49199,2.3897 0,1.6868 -0.86684,3.1159002 -0.84341,1.4291 -2.22567,2.2491 l 3.4205,5.4119 q 0.0937,0.1405 -0.0703,0.1405 h -4.4279 l -1.10112,-1.1011 h -0.0703 q -0.0234,0 -0.0703,-0.047 l -2.24909,-3.561 h -0.70284 v 4.6153 q 0,0.094 -0.0937,0.094 h -11.24544 l -1.10111,-1.1011 h -0.0937 q -0.0937,0 -0.0937,-0.094 V 0.09458181 q 0,-0.0940000009 0.0937,-0.0940000009 z M 140.93109,11.737982 l -0.0703,0.047 q -0.0469,-0.047 -0.0469,-0.094 z m 2.9285,4.8028 q -0.72627,-1.1714 -1.52282,-2.3663 -0.77312,-1.2182 -1.47596,-2.3896 -0.67942,0.328 -1.35883,0.4217 -0.67941,0.07 -1.42911,0.094 l 2.64737,4.2405 z m -18.41441,0 h 10.1209 v -4.2405 h -10.1209 z m 8.80893,-15.83740019 h -8.80893 V 11.831682 h 12.93226 q 1.14797,0 2.15537,-0.4451 1.00741,-0.4451 1.7571,-1.1948 0.77313,-0.7497002 1.19483,-1.7571002 0.44513,-1.0309 0.44513,-2.1788 0,-1.148 -0.44513,-2.1554 -0.4217,-1.0074 -1.19483,-1.7571 -0.74969,-0.7731 -1.7571,-1.1948 -1.0074,-0.44519999 -2.15537,-0.44519999 h -3.58449 l 1.21826,2.64739999 h 2.36623 q 0.5857,0 1.12454,0.2343 0.53885,0.2343 0.91369,0.6325 0.39828,0.3749 0.63256,0.9137 0.23428,0.5389 0.23428,1.1246 0,0.6091 -0.23428,1.1479 -0.21085,0.5155 -0.60913,0.9137 -0.39827,0.3983 -0.93712,0.6326 -0.51541,0.2343 -1.12454,0.2343 h -2.71765 q -0.0937,0 -0.0937,-0.094 v -5.5525 z M 165.95219,5.8180912e-4 q 0.0937,0 0.0937,0.0940000009 v 0.094 q 0.0703,0.07 0.21085,0.2343 0.16399,0.1406 0.32799,0.328 0.164,0.164 0.30456,0.30459999 0.164,0.1405 0.23428,0.2108 v 0.023 q 0.0234,0.047 0.0234,0.047 V 18.251282 q 0,0.094 -0.0937,0.094 h -3.56106 l -1.10111,-1.1011 h -0.0703 q -0.0234,0 -0.0703,-0.047 l -3.13935,-5.0604 v 6.1147 q 0,0.094 -0.0937,0.094 h -10.77688 l -1.10112,-1.1011 h -0.0937 q -0.0937,0 -0.0937,-0.094 V 0.09478181 q 0,-0.0940000009 0.0937,-0.0940000009 h 9.25406 q 0.0469,0 0.0937,0.0470000009 l 0.18742,0.3045 q 0.0469,0.047 0.164,0.1874 0.11714,0.1172 0.25771,0.2577 0.14057,0.1172 0.25771,0.25779999 0.11714,0.1171 0.18742,0.164 l 4.54503,7.3329 V 0.09458181 q 0,-0.0940000009 0.0937,-0.0940000009 z M 162.6957,0.70338181 V 11.245982 q 0,0.07 -0.0703,0.094 -0.0469,0 -0.0937,-0.047 L 155.97186,0.70348181 h -3.11593 l 9.79291,15.83740019 h 2.69422 V 0.70348181 Z m -5.38844,8.12959999 -5.01359,-8.12959999 h -4.63874 V 16.540782 h 9.65233 z M 186.96713,5.8180912e-4 q 0.0937,0 0.0937,0.0940000009 v 0.094 q 0.0703,0.07 0.21085,0.2343 0.164,0.1406 0.32799,0.328 0.164,0.164 0.30457,0.30459999 0.16399,0.1405 0.23428,0.2108 v 0.023 q 0.0234,0.047 0.0234,0.047 v 3.725 q 0,0.094 -0.0937,0.094 h -6.84097 v 2.3896 h 5.64615 q 0.0937,0 0.0937,0.094 v 0.094 q 0.0703,0.07 0.21085,0.2343 0.164,0.1406 0.32799,0.328 0.164,0.164 0.30457,0.3046 0.16399,0.1405 0.23428,0.2108 v 0.024 q 0.0234,0.047 0.0234,0.047 v 3.7016002 q 0,0.094 -0.0937,0.094 h -6.74726 v 0.5155 h 5.73986 q 0.0937,0 0.0937,0.094 v 0.094 q 0.0703,0.07 0.21085,0.2343 0.164,0.1405 0.32799,0.328 0.164,0.164 0.30457,0.3045 0.16399,0.1406 0.23428,0.2109 v 0.023 q 0.0234,0.047 0.0234,0.047 v 3.725 q 0,0.094 -0.0937,0.094 h -18.29726 l -1.10112,-1.1011 h -0.0937 q -0.0937,0 -0.0937,-0.094 V 0.09668181 q 0,-0.094 0.0937,-0.094 z M 169.18528,13.893382 v 2.6474 H 186.358 v -2.6474 z m 0,-13.19000019 V 13.424782 h 10.23803 v -2.4599 q 0,-0.094 0.0937,-0.094 h 6.74727 V 8.2469818 h -6.74727 q -0.0937,0 -0.0937,-0.094 v -4.709 q 0,-0.094 0.0937,-0.094 h 6.84098 V 0.70258181 Z m 31.37007,-0.492 q 0.0703,0.07 0.21085,0.2343 0.164,0.1406 0.32799,0.328 0.164,0.164 0.30457,0.30459999 0.16399,0.1406 0.23428,0.2108 v 0.024 q 0.0234,0.047 0.0234,0.047 V 13.238082 h 3.0925 q 0.0937,0 0.0937,0.094 v 0.094 q 0.0703,0.07 0.21085,0.2343 0.164,0.1406 0.328,0.328 0.16399,0.164 0.30456,0.3046 0.164,0.1405 0.23428,0.2108 v 0.024 q 0.0234,0.047 0.0234,0.047 v 3.7016 q 0,0.094 -0.0937,0.094 h -15.11106 l -1.10112,-1.1011 h -0.0937 q -0.0937,0 -0.0937,-0.094 V 0.11968181 q 0,-0.094 0.0937,-0.094 h 10.91745 q 0.0937,0 0.0937,0.094 z M 190.15332,13.940282 v 2.6239 h 13.98651 v -2.6239 z m 9.69919,-13.21340019 h -9.69919 V 13.471682 h 9.69919 z"
     id="text47"
     aria-label="WEBKERNEL" /></svg>
